<?xml version="1.0" standalone="no"?><!DOCTYPE svg PUBLIC "-//W3C//DTD SVG 1.1//EN" "http://www.w3.org/Graphics/SVG/1.1/DTD/svg11.dtd"><svg t="1539422536935" class="icon" style="" viewBox="0 0 1024 1024" version="1.1" xmlns="http://www.w3.org/2000/svg" p-id="8333" xmlns:xlink="http://www.w3.org/1999/xlink" width="64" height="64"><defs><style type="text/css"></style></defs><path d="M917.504 921.6h50.688a50.5856 50.5856 0 0 1 43.89888 25.6 51.64544 51.64544 0 0 1 0 51.2 50.5856 50.5856 0 0 1-43.89888 25.6H55.808a50.59072 50.59072 0 0 1-43.89888-25.6 51.64544 51.64544 0 0 1 0-51.2 50.59584 50.59584 0 0 1 43.89888-25.6h46.68416V102.4c0-56.576 45.3888-102.4 101.248-102.4h217.9584c55.94112 0.06656 101.25312 45.89568 101.25312 102.4v256H816.128c55.9872 0 101.376 45.7472 101.376 102.5536V921.6zM239.29856 258.17088h101.376v-102.4h-101.376v102.4z m0 226.3552h97.37216v-98.3552H239.29344v98.3552z m0 413.6448h101.376v-256h-101.376v256z m380.16-358.4h101.376v-102.4h-101.376v102.4z m0 358.4h101.376v-230.4h-101.376v230.4z" p-id="8334"></path></svg>