<?xml version="1.0" standalone="no"?><!DOCTYPE svg PUBLIC "-//W3C//DTD SVG 1.1//EN" "http://www.w3.org/Graphics/SVG/1.1/DTD/svg11.dtd"><svg t="1541560586733" class="icon" style="" viewBox="0 0 1024 1024" version="1.1" xmlns="http://www.w3.org/2000/svg" p-id="15839" xmlns:xlink="http://www.w3.org/1999/xlink" width="64" height="64"><defs><style type="text/css"></style></defs><path d="M1023.982604 877.249868c0-156.01993-89.45421-289.396955-215.908817-343.81749 61.253929-44.21547 101.605534-119.545493 101.605534-205.109232 0-116.808247-75.20109-214.577544-176.116941-240.027277-0.955734-0.238422-1.816303-0.10949-2.683012 0.245585-1.160387-0.102327-2.252216-0.388842-3.406464-0.388842-21.571542 0-39.061262 18.916158-39.061262 42.214979 0 21.052744 14.308376 38.337811 32.958484 41.519155 3.3113 1.487834 7.653032 2.601151 7.816755 2.668687 58.475752 21.428284 100.554636 81.132983 100.554636 151.555405 0 78.511367-52.352508 143.779581-121.389424 157.440228-0.102327 0-0.163723 0.211817-0.26605 0.238422-22.957049 1.590161-41.205012 21.988013-41.205012 47.192161 0 25.578665 18.780063 46.318289 42.228281 47.335419 0.177026 0.054233 0.300841 0.341772 0.470704 0.37554 138.810585 15.277412 237.234774 143.04999 237.234774 298.557262 0 23.025608 17.257438 41.696181 38.56293 41.696181 20.80716 0 37.600034-17.803864 38.426835-40.037461 0.040931-0.239445 0.177026-0.416471 0.177026-0.621125 0-0.061396-0.040931-0.136095-0.040931-0.245585l0 0c0-0.273213 0.040931-0.518798 0.040931-0.758243L1023.981581 877.249868 1023.982604 877.249868 1023.982604 877.249868 1023.982604 877.249868 1023.982604 877.249868 1023.982604 877.249868zM561.656193 540.382423c73.111574-52.96033 121.320865-143.022362 121.320865-245.283811 0-162.968952-122.283761-295.096565-273.088087-295.096565-150.839117 0-273.115715 132.127613-273.115715 295.096565 0 102.295217 48.202128 192.323481 121.313702 245.283811C106.921418 605.55445 0.011256 765.097496 0.011256 951.747972c0 10.51307 0.559728 20.840928 1.297506 31.149343l0.061396 0c0 22.711464 17.059947 41.102685 38.071761 41.102685 21.026139 0 38.057435-18.390197 38.057435-41.102685 0-1.28318-0.225119-2.491661-0.355074-3.767678-0.736754-9.059004-1.365041-18.118008-1.365041-27.381665 0-199.368691 149.575379-360.985904 334.083129-360.985904 184.527192 0 334.109734 161.618237 334.109734 360.985904 0 9.611569-0.634427 19.087044-1.4336 28.453029 0 0.48503-0.129955 0.942431-0.129955 1.413135 0 0.184188 0.027628 0.321307 0.027628 0.457401 0 0.273213 0 0.552565-0.027628 0.799173l0.129955 0c0.634427 22.117968 17.332137 39.894204 37.941806 39.894204 20.602506 0 37.300216-17.776236 37.928503-39.894204l0.102327 0c0.689684-10.280788 1.194155-20.650599 1.194155-31.121715C819.732919 765.097496 712.822757 605.55445 561.656193 540.382423L561.656193 540.382423 561.656193 540.382423 561.656193 540.382423zM409.888971 507.054539c-108.364228 0-196.187346-94.894933-196.187346-211.956951 0-117.053832 87.823118-211.956951 196.187346-211.956951 108.3366 0 196.159718 94.902096 196.159718 211.956951C606.048689 412.159606 518.225571 507.054539 409.888971 507.054539L409.888971 507.054539 409.888971 507.054539 409.888971 507.054539z" p-id="15840"></path></svg>