<?xml version="1.0" standalone="no"?><!DOCTYPE svg PUBLIC "-//W3C//DTD SVG 1.1//EN" "http://www.w3.org/Graphics/SVG/1.1/DTD/svg11.dtd"><svg t="1541560849123" class="icon" style="" viewBox="0 0 1024 1024" version="1.1" xmlns="http://www.w3.org/2000/svg" p-id="1791" xmlns:xlink="http://www.w3.org/1999/xlink" width="64" height="64"><defs><style type="text/css"></style></defs><path d="M788.281 548.494H247.287c-16.8 0-30.4-13.6-30.4-30.4 0-16.8 13.6-30.4 30.4-30.4H788.28c16.8 0 30.4 13.6 30.4 30.4 0 16.7-13.6 30.4-30.4 30.4zM517.684 819.19c-16.8 0-30.4-13.6-30.4-30.4V247.297c0-16.8 13.6-30.4 30.4-30.4s30.4 13.6 30.4 30.4V788.79c0.1 16.8-13.6 30.4-30.4 30.4z m-5.2 204.798c-69.1 0-136.199-13.5-199.298-40.3-61-25.8-115.799-62.699-162.698-109.799-47.1-47-84-101.699-109.8-162.798C13.989 647.892 0.49 580.893 0.49 511.794s13.6-136.199 40.2-199.298c25.8-60.7 62.699-115.599 109.799-162.598s101.699-84 162.698-109.6C376.286 13.599 443.385 0 512.484 0s136.199 13.5 199.298 40.3c61 25.8 115.799 62.599 162.698 109.599 47.1 47 84 101.699 109.8 162.798 26.7 63.2 40.199 130.199 40.199 199.298 0 92.7-25.1 183.498-72.5 262.697-8.7 14.5-27.299 19.1-41.699 10.5-14.4-8.7-19-27.3-10.5-41.8 41.7-69.699 63.8-149.698 63.9-231.297 0-60.9-11.9-119.899-35.4-175.498-22.7-53.8-55.3-101.9-96.7-143.399s-89.798-74-143.498-96.699c-55.6-23.6-114.699-35.4-175.698-35.4s-119.999 11.9-175.698 35.4c-53.6 22.7-101.8 55.2-143.199 96.7s-74 89.598-96.699 143.398c-23.5 55.6-35.4 114.699-35.4 175.498 0 60.9 11.9 119.899 35.4 175.498 22.7 53.8 55.3 101.9 96.7 143.399 41.399 41.4 89.798 74 143.498 96.699 55.6 23.6 114.699 35.4 175.698 35.4 90.9 0 178.498-26.9 253.398-77.8 13.9-9.4 32.8-5.9 42.3 8 9.399 13.9 5.899 32.9-8 42.3-85.2 57.9-184.699 88.399-287.898 88.399z" p-id="1792"></path></svg>