<?xml version="1.0" standalone="no"?><!DOCTYPE svg PUBLIC "-//W3C//DTD SVG 1.1//EN" "http://www.w3.org/Graphics/SVG/1.1/DTD/svg11.dtd"><svg t="1541560795669" class="icon" style="" viewBox="0 0 1024 1024" version="1.1" xmlns="http://www.w3.org/2000/svg" p-id="20699" xmlns:xlink="http://www.w3.org/1999/xlink" width="64" height="64"><defs><style type="text/css"></style></defs><path d="M1007.888238 551.665279L557.264658 61.01517c-11.776759-12.860509-28.574896-20.013265-46.095534-20.013265s-34.318775 7.152755-46.095533 20.013265L14.450011 550.581528c-6.791505 7.152755-10.006632 16.436887-9.645382 26.44352 0.36125 10.006632 4.985254 18.929514 12.499259 25.721018 6.791505 6.069004 15.714387 9.284132 24.673393 9.284132 10.729133 0 20.735765-4.298878 28.213645-12.138009L142.72998 520.922882v319.453609c0 77.885557 63.254921 141.501729 141.501728 141.501728h452.393707c77.885557 0 141.501729-63.616172 141.501728-141.862979v-319.128483l73.622804 80.053058c7.152755 7.875256 17.520638 12.138009 28.213646 12.138009 9.284132 0 17.845763-3.215127 24.673393-8.922882 7.875256-6.430255 12.499259-16.075637 13.22176-25.721018 0.397375-10.693008-3.179002-19.97714-9.970508-26.768645z m-202.986523 287.663586c0 37.895153-30.742398 68.601425-68.240175 68.601425H284.231708c-37.533902 0-68.240175-30.742398-68.240175-68.601425V448.383828c0-2.131377-0.36125-4.660128-0.7225-6.791505L506.183871 126.076342c1.408876-1.445001 3.215127-2.131377 5.346504-2.131376s3.937628 0.722501 5.346504 2.131376l288.386086 314.107105v399.145418h-0.36125z m0 0" fill="" p-id="20700"></path><path d="M381.444154 406.225923c-44.325407 34.318775-72.539053 83.990687-79.330558 139.731602C295.322091 601.698441 310.313977 656.752981 344.994003 700.681013c56.463416 72.177803 132.578847 81.461935 162.598744 82.545686h1.770126c19.290764 0 35.366401-16.075637 35.727651-35.727652 0.36125-20.013265-15.353136-36.811402-35.727651-37.172652-19.652014-0.36125-69.323926-6.430255-106.496578-54.33204-22.505891-28.574896-32.512524-64.338672-28.213646-100.788823 4.298878-36.088901 22.505891-68.601425 51.442038-91.107317 24.312143-18.929514 53.609539-28.936146 84.351937-28.936146 42.519156 0 81.823185 19.290764 107.905454 52.525788 45.011783 57.547167 35.005151 145.800607-22.505892 197.242645-14.30551 12.860509-16.436887 35.005151-4.660128 49.671911l79.691808 101.475199c6.791505 8.922882 17.520638 13.94426 28.574896 13.944261 8.236506 0 16.075637-2.492627 22.505892-7.514006 7.875256-6.069004 12.860509-14.666761 13.94426-24.312143 1.083751-9.645382-1.445001-19.290764-7.514006-27.16602L668.349115 714.191773c64.338672-79.330558 67.878925-194.388767 7.514005-271.949199-40.026529-51.442038-100.427574-80.775559-165.813871-80.775559-47.107035 0.4335-91.432442 15.822762-128.605095 44.758908z m0 0" fill="" p-id="20701"></path></svg>