<?xml version="1.0" standalone="no"?><!DOCTYPE svg PUBLIC "-//W3C//DTD SVG 1.1//EN" "http://www.w3.org/Graphics/SVG/1.1/DTD/svg11.dtd"><svg t="1536834160793" class="icon" style="" viewBox="0 0 1024 1024" version="1.1" xmlns="http://www.w3.org/2000/svg" p-id="36151" xmlns:xlink="http://www.w3.org/1999/xlink" width="64" height="64"><defs><style type="text/css"></style></defs><path d="M874.048 149.952c-96.704-96.704-225.28-149.952-362.048-149.952s-265.344 53.248-362.048 149.952c-96.704 96.704-149.952 225.28-149.952 362.048s53.248 265.344 149.952 362.048c96.704 96.704 225.28 149.952 362.048 149.952s265.344-53.248 362.048-149.952c96.704-96.704 149.952-225.28 149.952-362.048s-53.248-265.344-149.952-362.048zM896 512c0 82.816-26.368 159.584-71.104 222.368l-535.264-535.264c62.784-44.768 139.552-71.104 222.368-71.104 211.744 0 384 172.256 384 384zM128 512c0-82.816 26.368-159.584 71.104-222.368l535.264 535.264c-62.784 44.768-139.552 71.104-222.368 71.104-211.744 0-384-172.256-384-384z" p-id="36152"></path></svg>