<?xml version="1.0" standalone="no"?><!DOCTYPE svg PUBLIC "-//W3C//DTD SVG 1.1//EN" "http://www.w3.org/Graphics/SVG/1.1/DTD/svg11.dtd"><svg t="1537253277717" class="icon" style="" viewBox="0 0 1024 1024" version="1.1" xmlns="http://www.w3.org/2000/svg" p-id="5697" xmlns:xlink="http://www.w3.org/1999/xlink" width="64" height="64"><defs><style type="text/css"></style></defs><path d="M513.063125 720.8909375c-28.033125 0-55.23375-5.4928125-80.8453125-16.325625-24.7321875-10.460625-46.9425-25.4353125-66.013125-44.5059375s-34.044375-41.2809375-44.5059375-66.013125c-10.8328125-25.6115625-16.325625-52.8121875-16.325625-80.8453125 0-28.0340625 5.4928125-55.23375 16.325625-80.8453125 10.4615625-24.733125 25.4353125-46.9425 44.5059375-66.0140625 19.070625-19.070625 41.2809375-34.044375 66.013125-44.5059375 25.6115625-10.8328125 52.8121875-16.325625 80.8453125-16.325625s55.23375 5.4928125 80.8453125 16.325625c24.7321875 10.460625 46.9425 25.434375 66.0140625 44.5059375s34.0453125 41.2809375 44.5059375 66.0140625c10.8328125 25.6115625 16.325625 52.8121875 16.325625 80.8453125s-5.4928125 55.23375-16.325625 80.8453125c-10.460625 24.7321875-25.4353125 46.9425-44.5059375 66.013125s-41.2809375 34.0453125-66.0140625 44.5059375c-25.6115625 10.8328125-52.8121875 16.325625-80.8453125 16.325625z m0-395.8734375c-103.764375 0-188.1825 84.418125-188.1825 188.1825s84.418125 188.1825 188.1825 188.1825 188.1825-84.418125 188.1825-188.1825c0-103.7634375-84.418125-188.1825-188.1825-188.1825zM176.0740625 399.75875l-35.383125-12.42c19.6190625-55.8946875 52.3790625-107.55375 94.738125-149.394375 42.3871875-41.8696875 94.4840625-73.9996875 150.6571875-92.9175l11.9690625 35.53875c-102.995625 34.685625-185.979375 116.626875-221.98125 219.193125zM386.088125 890.0346875C268.285625 850.364375 175.2884375 756.03125 137.3225 637.69625l35.7075-11.4571875c34.3425 107.041875 118.464375 192.3703125 225.0253125 228.256875l-11.9671875 35.53875zM638.1528125 889.6690625l-12.0721875-35.5040625c106.0725-36.0684375 189.826875-121.2740625 224.0446875-227.925l35.7075 11.4571875c-37.8271875 117.9028125-130.4175 212.0971875-247.68 251.971875zM846.8178125 399.0078125C817.3765625 315.738125 758.2446875 246.6875 680.313125 204.5759375a354.3375 354.3375 0 0 0-55.663125-24.16125l11.9203125-35.555625a392.1121875 392.1121875 0 0 1 61.5703125 26.7253125c42.530625 22.9828125 80.1084375 53.281875 111.688125 90.0571875 31.805625 37.0378125 56.1459375 79.0490625 72.345 124.8665625l-35.3559375 12.4996875z" p-id="5698"></path></svg>