<?xml version="1.0" standalone="no"?><!DOCTYPE svg PUBLIC "-//W3C//DTD SVG 1.1//EN" "http://www.w3.org/Graphics/SVG/1.1/DTD/svg11.dtd"><svg t="1537253297970" class="icon" style="" viewBox="0 0 1024 1024" version="1.1" xmlns="http://www.w3.org/2000/svg" p-id="5807" xmlns:xlink="http://www.w3.org/1999/xlink" width="64" height="64"><defs><style type="text/css"></style></defs><path d="M500.5 959.3c-265.8 0-337.8-19.7-356.4-28.2-14.6-6.7-32-16.7-32.1-26.3V860c0-17.6 35.1-46.9 134.1-71.6C355.2 761.2 413.5 681.2 422.8 614c8-57.3-17.1-108.8-67.2-137.5-15.4-8.8-26.8-26.8-34.8-54.7-4.6-16.2-14.6-30.5-28.2-40.4-6.2-4.5-13.4-12.1-19.2-19.1 14.6-13.6 33.3-34.3 29.1-61.7-11.8-76 0.7-133 38.1-174.2 38.9-42.9 86.8-62.1 155.2-62.3 68.3 0 116.2 19.3 155.2 62.2 37.4 41.2 49.8 98.2 38.1 174.2-4.2 27.5 14.5 48.1 29.1 61.8-5.8 7-13 14.6-19.2 19.1-13.6 9.9-23.6 24.2-28.2 40.3-8 28-19.4 45.9-34.8 54.8-15.3 8.8-20.6 28.4-11.8 43.7 5.9 10.3 16.7 16.1 27.8 16.1 5.4 0 10.9-1.4 15.9-4.2 30.5-17.5 51.6-47.8 64.5-92.7 0.7-2.4 2.2-4.6 4.3-6.1 0.7-0.5 67.8-52.5 50.8-88.8-4.5-9.8-12.4-16.9-20.8-24.5-4-3.6-10.8-9.8-13.7-13.7 13.5-93.1-4.8-168.1-54.6-222.9C647.3 27 583.3 0.5 497.4 0H494.2c-86 0.5-149.9 26.9-201 83.2-49.8 54.8-68.1 129.8-54.5 222.9-2.9 3.9-9.8 10.1-13.7 13.7-8.4 7.6-16.3 14.7-20.7 24.4-17 36.5 50.1 88.3 50.8 88.9 2.1 1.5 3.6 3.7 4.3 6.2 12.8 44.8 33.9 75.1 64.5 92.6 37 21.2 38.2 55 35.7 73.2-6.2 44.4-49.1 101.2-128.8 121.2C107.7 756.9 48 800.7 48 860v45.1c0.4 52.8 52.4 76.5 69.6 84.3 49.4 22.5 178.3 33.9 382.9 33.9 17.7 0 32-14.3 32-32s-14.3-32-32-32z" p-id="5808"></path><path d="M953.2 734.3L798.7 566.5l-3.3-3.3c-26.1-23.9-66.5-22.2-90.4 3.7L550.8 734.3c-10.9 11.9-16.9 27.2-16.9 43.3 0 28.4 18.6 52.5 44.2 60.9v64.2c0 49.2 39.8 89.3 88.8 89.3h170.3c49 0 88.8-40.1 88.8-89.3v-64.2c8.7-2.8 16.8-7.5 23.6-13.8 25.9-23.9 27.5-64.5 3.6-90.4z m-91.3 43.3v125.1c0 13.9-11.1 25.3-24.8 25.3H666.8c-13.7 0-24.8-11.3-24.8-25.3V777.6h-44.2L752 610.2l154.2 167.4h-44.3z" p-id="5809"></path></svg>