<?xml version="1.0" standalone="no"?><!DOCTYPE svg PUBLIC "-//W3C//DTD SVG 1.1//EN" "http://www.w3.org/Graphics/SVG/1.1/DTD/svg11.dtd"><svg t="1537267454053" class="icon" style="" viewBox="0 0 1112 1024" version="1.1" xmlns="http://www.w3.org/2000/svg" p-id="21060" xmlns:xlink="http://www.w3.org/1999/xlink" width="69.5" height="64"><defs><style type="text/css"></style></defs><path d="M1068.066712 378.984136 1002.929898 328.287458 1046.128814 272.088949 1111.230915 322.785627 1068.066712 378.984136ZM729.626034 819.547119 664.523932 768.850441 976.045559 363.294373 1041.182373 414.008407 729.626034 819.547119ZM793.304949 547.770576C788.219661 554.400542 780.565695 557.889085 772.842305 557.889085 767.305763 557.889085 761.734508 556.11878 757.031051 552.439322 745.732339 543.639864 743.666983 527.290576 752.397017 515.922441L895.06278 330.213966C903.792814 318.828475 920.037966 316.728407 931.336678 325.54522 942.63539 334.344678 944.700746 350.693966 935.970712 362.062102L793.304949 547.770576ZM619.797695 894.767729 637.639593 803.857356 702.741695 854.554034 619.797695 894.767729ZM189.856542 763.661017 613.688407 763.661017 603.326915 777.163932C599.196203 782.526915 596.349831 788.757695 595.065492 795.405017L591.073627 815.728814 189.856542 815.728814C175.57261 815.728814 163.996203 804.082983 163.996203 789.694915 163.996203 775.306847 175.57261 763.661017 189.856542 763.661017ZM655.307932 503.322034 189.856542 503.322034C175.57261 503.322034 163.996203 491.676203 163.996203 477.288136 163.996203 462.900068 175.57261 451.254237 189.856542 451.254237L655.307932 451.254237C669.591864 451.254237 681.168271 462.900068 681.168271 477.288136 681.168271 491.676203 669.591864 503.322034 655.307932 503.322034ZM655.307932 659.525424 189.856542 659.525424C175.57261 659.525424 163.996203 647.879593 163.996203 633.491525 163.996203 619.103458 175.57261 607.457627 189.856542 607.457627L655.307932 607.457627C669.591864 607.457627 681.168271 619.103458 681.168271 633.491525 681.168271 647.879593 669.591864 659.525424 655.307932 659.525424ZM793.218169 267.142508 567.816678 34.711864 34.694508 34.711864 34.694508 989.288136 793.218169 989.288136 793.218169 808.161627 827.704407 763.279186 827.704407 1006.644068C827.704407 1016.224542 819.981017 1024 810.469966 1024L17.460068 1024C7.949017 1024 0.225627 1016.224542 0.225627 1006.644068L0.225627 17.355932C0.225627 7.775458 7.949017 0 17.460068 0L575.071458 0C579.722847 0 584.165966 1.891797 587.411525 5.224136L822.810034 247.946847C825.934102 251.192407 827.704407 255.548746 827.704407 260.078644L827.704407 353.401492 793.218169 398.283932 793.218169 267.142508Z" p-id="21061"></path></svg>