<?xml version="1.0" standalone="no"?><!DOCTYPE svg PUBLIC "-//W3C//DTD SVG 1.1//EN" "http://www.w3.org/Graphics/SVG/1.1/DTD/svg11.dtd"><svg t="1536835704368" class="icon" style="" viewBox="0 0 1024 1024" version="1.1" xmlns="http://www.w3.org/2000/svg" p-id="14513" xmlns:xlink="http://www.w3.org/1999/xlink" width="64" height="64"><defs><style type="text/css"></style></defs><path d="M668.672 292.992 460.224 292.992 460.224 41.344 0 354.688l1.536 0 458.688 312 0-248.32 205.504 0c128.64 0 232.96 98.176 232.96 219.456 0 121.216-104.32 219.456-232.96 219.456L522.432 857.28 459.776 857.28 414.592 857.28l0-0.448L320.256 856.832l0 125.824 76.8 0 17.536 0 45.12 0 62.656 0 146.24 0c196.352 0 355.392-154.368 355.392-344.832C1024 447.296 865.024 292.992 668.672 292.992z" p-id="14514"></path></svg>