<?xml version="1.0" standalone="no"?><!DOCTYPE svg PUBLIC "-//W3C//DTD SVG 1.1//EN" "http://www.w3.org/Graphics/SVG/1.1/DTD/svg11.dtd"><svg t="1539740716905" class="icon" style="" viewBox="0 0 1024 1024" version="1.1" xmlns="http://www.w3.org/2000/svg" p-id="5019" xmlns:xlink="http://www.w3.org/1999/xlink" width="64" height="64"><defs><style type="text/css"></style></defs><path d="M406.5 682.8H203.3V642h203.2v40.8z m-203.2-345h203.2v40.8H203.3v-40.8z m203.2 192.9H203.3v-40.8h203.2v40.8zM946.3 196H559.6v230c-13.2 10.4-25.6 21.9-36.9 34.4v-1.2c-1.5 1.7-3.1 3.3-4.5 5V125H91.6v719.9h412.8c11 14.7 23.3 28.3 36.7 40.8H0v-40.8h50.8V84.2h508.1V159h424.4v252.8l0.1 60.1c-11.3-13.7-23.7-26.4-37.1-37.9V196z m-198 193.5c152.3 0 275.7 123.2 275.7 275.2S900.6 939.9 748.3 939.9 472.6 816.6 472.6 664.6c0-151.9 123.4-275.1 275.7-275.1z m0 513.6c132 0 238.9-106.8 238.9-238.5s-107-238.5-238.9-238.5-238.9 106.8-238.9 238.5 106.9 238.5 238.9 238.5z m-57-410.3l30.2 7.6c-34.4 71.4-78.7 129.8-132.9 175.3-6.6-8.4-14.8-16.5-24.4-24.4 56.7-46.2 99-95.7 127.1-158.5z m-62.7 283.5c29.8-34.3 62.1-85 97-152.1l32.8 14.9c-31.6 54.1-58.2 99.9-94.1 146.9 52.6-1.6 102.9-2.4 169.4-5.4-14.5-22-28.4-42-45.8-66.4l24.8-15.6c36.7 47.5 60.6 74.7 85.8 113.6l-29 19.1c-6.1-9-8.9-11.3-15.7-20.4-84 4.1-151.7 4.6-204.3 8.8-14.7 2-19.4 3.6-39.3 7l-9.4-31.1c10.6-5.3 18.1-9.8 27.8-19.3z m151.3-282.8l28.3-11.1c24.7 66.3 70.7 118.9 137.9 157.8-6.9 7.1-14.8 17-23.7 29.7-70.4-48.2-117.8-107-142.5-176.4z" fill="#666666" p-id="5020"></path></svg>