<?xml version="1.0" standalone="no"?><!DOCTYPE svg PUBLIC "-//W3C//DTD SVG 1.1//EN" "http://www.w3.org/Graphics/SVG/1.1/DTD/svg11.dtd"><svg t="1536833749757" class="icon" style="" viewBox="0 0 1024 1024" version="1.1" xmlns="http://www.w3.org/2000/svg" p-id="33099" xmlns:xlink="http://www.w3.org/1999/xlink" width="64" height="64"><defs><style type="text/css"></style></defs><path d="M851.433193 329.175091a49.400989 49.400989 0 0 0 0-69.902399l-244.534895-244.534895a49.400989 49.400989 0 0 0-70.396409 0l-17.537351 17.537351L834.142847 346.218432zM327.535706 783.417184a49.400989 49.400989 0 0 0 69.902399 0l17.537351-17.537351L100.538162 451.442539l-17.537351 18.278366a49.400989 49.400989 0 0 0 0 69.902399zM981.110789 974.599011H42.492a24.700494 24.700494 0 0 0 0 49.400989h938.618789a24.700494 24.700494 0 0 0 0-49.400989zM414.975456 730.805131a24.700494 24.700494 0 0 0 17.290347 7.410148 24.700494 24.700494 0 0 0 17.537351-7.410148l139.804798-139.557794 279.362592 279.362593a49.400989 49.400989 0 0 0 69.9024-69.9024L660.004361 521.344938l139.804799-139.804798a24.700494 24.700494 0 0 0 0-34.827698L519.705553 67.102845a24.700494 24.700494 0 0 0-35.074702 0L135.365859 416.614842a24.700494 24.700494 0 0 0 0 34.827697z m87.192746-611.090233l244.534895 244.534895-314.437294 314.19029-244.534895-244.534895z" fill="" p-id="33100"></path><path d="M275.170658 276.810043l69.902399-69.902399-17.537351-17.537351a49.400989 49.400989 0 0 0-69.902399 69.902399z" fill="" p-id="33101"></path></svg>