<?xml version="1.0" standalone="no"?><!DOCTYPE svg PUBLIC "-//W3C//DTD SVG 1.1//EN" "http://www.w3.org/Graphics/SVG/1.1/DTD/svg11.dtd"><svg t="1537267075258" class="icon" style="" viewBox="0 0 1054 1024" version="1.1" xmlns="http://www.w3.org/2000/svg" p-id="8244" xmlns:xlink="http://www.w3.org/1999/xlink" width="65.875" height="64"><defs><style type="text/css"></style></defs><path d="M452.004655 32.35807H91.024259C52.432907 32.35807 32.999731 38.958016 32.999731 84.332647v798.226837c0 45.466297 13.47489 61.141169 54.357891 61.141169h360.063737c38.591353 0 54.357891-15.766538 54.357891-61.141169V123.290663c2.291648-45.466297-11.183242-90.932593-49.774595-90.932593z m-34.649718 805.468445c0 22.733148-6.691612 24.841465 0.274998 24.841465h-260.331215c-47.941277 0-45.557963 0.183332-45.557963-24.841465V138.323874c0-22.733148-2.47498-24.841465 18.058187-24.841464h269.497807c20.4415 0 18.058186-0.183332 18.058186 24.841464v699.502641z" fill="" p-id="8245"></path><path d="M837.093188 205.789992H476.112792c-38.591353 0-58.024528 6.599946-58.024528 51.974577v624.061588c0 45.466297 13.47489 61.141169 54.357891 61.141169h360.063737c38.591353 0 54.357891-15.766538 54.357891-61.141169V296.722585c2.291648-45.466297-11.183242-90.932593-49.774595-90.932593zM802.44347 837.093188c0 22.733148-6.691612 24.841465 0.274997 24.841464h-260.331214c-47.941277 0-45.557963 0.183332-45.557963-24.841464V311.755796c0-22.733148-2.47498-24.841465 18.058187-24.841464h269.497806c20.4415 0 18.058186-0.183332 18.058187 24.841464V837.093188z" fill="" p-id="8246"></path><path d="M206.706651 202.581685c-20.166503 0-36.666368 16.499866-36.666368 36.666368v247.497986c0 20.166503 16.499866 36.666368 36.666368 36.666368s36.666368-16.499866 36.666368-36.666368v-247.497986c0-20.166503-16.499866-36.666368-36.666368-36.666368zM320.372393 202.581685c-20.166503 0-36.666368 16.499866-36.666368 36.666368v247.497986c0 20.166503 16.499866 36.666368 36.666368 36.666368s36.666368-16.499866 36.666368-36.666368v-247.497986c0-20.166503-16.499866-36.666368-36.666368-36.666368z" fill="" p-id="8247"></path><path d="M97.165876 861.934652c-14.116552-17.783189-7.333274-46.841285 15.033211-64.624474l641.569779-518.370781c22.366485-17.783189 52.249575-17.783189 66.366126 0 14.116552 17.783189 7.333274 46.841285-15.033211 64.624474L163.440337 861.842986c-22.366485 17.783189-52.157909 17.783189-66.274461 0.091666z" fill="" p-id="8248"></path></svg>