<?xml version="1.0" standalone="no"?><!DOCTYPE svg PUBLIC "-//W3C//DTD SVG 1.1//EN" "http://www.w3.org/Graphics/SVG/1.1/DTD/svg11.dtd"><svg t="1533025527132" class="icon" style="" viewBox="0 0 1024 1024" version="1.1" xmlns="http://www.w3.org/2000/svg" p-id="1524" xmlns:xlink="http://www.w3.org/1999/xlink" width="64" height="64"><defs><style type="text/css"></style></defs><path d="M1024 963.764706c0 33.129412-27.105882 60.235294-63.247059 60.235294H650.541176c-33.129412 0-63.247059-27.105882-63.247058-60.235294l93.364706-240.941177-93.364706-240.941176c0-33.129412 27.105882-60.235294 63.247058-60.235294h310.211765c33.129412 0 63.247059 27.105882 63.247059 60.235294l-93.364706 240.941176 93.364706 240.941177z m-123.482353-421.647059h-186.729412l69.270589 180.705882-69.270589 180.705883h186.729412l-69.270588-180.705883 69.270588-180.705882z m-93.364706-180.705882c-33.129412 0-63.247059-27.105882-63.247059-60.235294V180.705882c0-33.129412-27.105882-60.235294-63.247058-60.235294H186.729412C150.588235 120.470588 123.482353 147.576471 123.482353 180.705882v662.588236c0 33.129412 27.105882 60.235294 63.247059 60.235294h246.964706c33.129412 0 63.247059 27.105882 63.247058 60.235294s-27.105882 60.235294-63.247058 60.235294H123.482353C54.211765 1024 0 969.788235 0 903.529412V120.470588c0-66.258824 54.211765-120.470588 123.482353-120.470588h620.423529c69.270588 0 123.482353 54.211765 123.482353 120.470588v180.705883c0 33.129412-27.105882 60.235294-60.235294 60.235294zM280.094118 512h123.482353c33.129412 0 63.247059 27.105882 63.247058 60.235294s-27.105882 60.235294-63.247058 60.235294H280.094118c-33.129412 0-63.247059-27.105882-63.247059-60.235294s27.105882-60.235294 63.247059-60.235294z m0-240.941176h310.211764c33.129412 0 63.247059 27.105882 63.247059 60.235294s-27.105882 60.235294-63.247059 60.235294H280.094118c-33.129412 0-63.247059-27.105882-63.247059-60.235294s27.105882-60.235294 63.247059-60.235294z" p-id="1525"></path></svg>