<?xml version="1.0" standalone="no"?><!DOCTYPE svg PUBLIC "-//W3C//DTD SVG 1.1//EN" "http://www.w3.org/Graphics/SVG/1.1/DTD/svg11.dtd"><svg t="1533025558759" class="icon" style="" viewBox="0 0 1024 1024" version="1.1" xmlns="http://www.w3.org/2000/svg" p-id="1762" xmlns:xlink="http://www.w3.org/1999/xlink" width="64" height="64"><defs><style type="text/css"></style></defs><path d="M886.7 347.1c-21.1-47.9-51.2-91.2-88.8-127.6-37.3-36.2-80.9-64.7-130.5-85.7-49.6-20.9-102.7-31-159.1-30.5-56.6 0.5-109.5 11.7-158.8 33.2-49.3 21.5-92.3 50.6-129.1 87.9-36.9 37.4-66.3 81.6-86.6 130-21 49.5-31.1 102.3-30.5 158.6 1.1 53 11.7 102.5 31.3 148.5 19.9 46 45.2 86 76.3 120.5 10.3 11.4 16.3 23.4 18.2 35.9 1.9 12.2-3.3 21.7-15.5 28.5-21.8 12.8-50.1 21.8-84.7 27.2-5.5 1.1 7.4 6.8 38.4 16.9 31.1 10.1 78.7 18.2 143.3 25.1 26.1 2.2 52.3 3.7 78.4 4.6 23.2 0.5 44.1 0.5 63.5 0 19.1-0.5 36.5-1.6 52-2.7s30.2-2.7 44.1-4.6c51.2-5.2 101-19.7 146.8-43 44.5-22.5 84.6-52.7 118.5-89.2 33.5-36.2 59.6-77.8 79-124.6 19.1-46.8 28.3-97.1 27.8-150.7-0.8-56.8-12.2-109.3-34-158.3zM287.5 577.5c-36.3 0.1-65.8-29.3-65.9-65.6v-0.2c0-36.4 29.4-65.8 65.9-65.8s65.9 29.4 65.9 65.8c0.2 36.1-29.4 65.8-65.9 65.8z m224.4 0c-36.3 0.1-65.8-29.2-65.9-65.5v-0.3c0-36.3 29.4-65.8 65.7-65.8h0.2c36.3-0.1 65.8 29.3 65.9 65.6v0.2c0 36.1-29.4 65.8-65.9 65.8z m224.5 0c-36.3 0.1-65.8-29.3-65.9-65.6v-0.2c0-36.3 29.4-65.8 65.7-65.8h0.3c36.3-0.1 65.8 29.3 65.9 65.6v0.2c-0.2 36.3-29.7 65.8-66 65.8z" p-id="1763"></path></svg>